<svg width="215" height="22" viewBox="0 0 215 22" fill="none" xmlns="http://www.w3.org/2000/svg">
<path fill-rule="evenodd" clip-rule="evenodd" d="M0.121415 0.0932487C-0.0389225 0.230324 -0.0410966 21.7624 0.118698 21.8999C0.265991 22.0258 4.86959 22.0309 5.35713 21.9055C5.83054 21.7838 5.80716 22.2137 5.80227 13.5486C5.79792 5.71987 5.8001 5.65647 6.06371 5.54457C6.27568 5.45458 23.2373 5.41961 24.7097 5.50587C25.5885 5.55762 25.9695 5.61171 26.1201 5.70589C26.2331 5.77676 26.4679 5.92316 26.6424 6.03086C26.9408 6.21549 27.0604 6.36982 27.568 7.22864L27.7751 7.57832L27.7881 14.2223C27.7952 17.8762 27.8055 21.0812 27.8104 21.3442C27.8197 21.8081 27.8289 21.8249 28.1056 21.9078C28.5616 22.044 33.294 22.0235 33.4288 21.8845C33.6179 21.6887 33.5239 3.94395 33.3326 3.75932C33.15 3.58355 32.8929 3.06508 32.8929 2.87253C32.8929 2.79466 32.7711 2.61656 32.6217 2.47669C32.4727 2.33635 32.3086 2.11208 32.257 1.97827C32.2053 1.84399 32.0618 1.69479 31.9374 1.64631C31.8134 1.59782 31.6743 1.47286 31.6281 1.36936C31.5825 1.26585 31.4504 1.15535 31.3357 1.12411C31.2205 1.09287 30.9476 0.949738 30.7286 0.806601C30.5095 0.662998 30.2525 0.545971 30.1563 0.545971C29.9383 0.545971 29.6492 0.420085 29.3758 0.20608L29.1643 0.0405632L14.6986 0.019116C3.36785 0.00233119 0.208378 0.0186497 0.121415 0.0932487ZM44.2682 0.0596791C43.9703 0.0792614 43.7383 0.149198 43.5714 0.269955C43.4339 0.369265 43.1116 0.493286 42.8561 0.545971C42.6001 0.598657 42.3691 0.69004 42.343 0.748787C42.3164 0.807534 42.1387 0.931088 41.9474 1.0234C41.5767 1.20244 40.5929 2.12327 40.5929 2.29159C40.5929 2.34707 40.4766 2.49254 40.3342 2.61516C40.1793 2.74851 40.0315 2.99422 39.9657 3.22687C39.9059 3.44041 39.7673 3.73741 39.6586 3.88707L39.4608 4.15936V11.077V17.9951L39.6559 18.2077C39.763 18.3248 39.901 18.6036 39.963 18.8274C40.0266 19.0582 40.1891 19.3468 40.338 19.4932C40.482 19.6358 40.6233 19.8503 40.6511 19.9701C40.681 20.0984 40.7924 20.2233 40.9206 20.2737C41.0408 20.3203 41.1859 20.4466 41.243 20.5543C41.3 20.6616 41.4011 20.7497 41.468 20.7497C41.5343 20.7497 41.7397 20.8719 41.9245 21.0211C42.1088 21.1703 42.3974 21.3148 42.5653 21.3414C42.7333 21.3684 42.9838 21.4724 43.1224 21.5726C43.6203 21.9321 43.7975 21.9377 55.313 21.9736C67.6259 22.0123 68.7678 21.982 69.2787 21.6011C69.4369 21.4836 69.7271 21.3637 69.9239 21.3353C70.1832 21.2975 70.3098 21.2309 70.3832 21.0919C70.4392 20.987 70.5565 20.8784 70.6441 20.8513C70.8386 20.7912 71.4746 20.2457 71.6914 19.9534C71.7784 19.8359 71.905 19.7394 71.9724 19.7394C72.0436 19.7394 72.1409 19.5841 72.2029 19.3706C72.2621 19.1673 72.4089 18.9127 72.5284 18.8045C72.8785 18.4894 72.9306 17.4604 72.929 10.9586C72.9274 4.50904 72.8899 3.79569 72.5339 3.35462C72.4078 3.19843 72.2567 2.94806 72.1985 2.79886C72.1404 2.64966 71.9806 2.4226 71.8431 2.29438C71.7056 2.16617 71.568 1.9876 71.5365 1.89808C71.505 1.80856 71.3778 1.69526 71.2533 1.64677C71.1289 1.59828 70.9805 1.47053 70.9234 1.36283C70.8664 1.25559 70.7653 1.16747 70.6984 1.16747C70.6321 1.16747 70.4229 1.04765 70.2337 0.901249C70.0446 0.754382 69.7695 0.610779 69.6222 0.581406C69.4744 0.552032 69.1972 0.437336 69.0048 0.32637C68.7896 0.201883 68.4597 0.103972 68.1444 0.0699365C67.6275 0.0144536 45.0943 0.00466242 44.2682 0.0596791ZM76.1167 0.0704027C76.0162 0.124953 76.02 0.178105 76.1396 0.376258C76.2189 0.508205 76.2842 0.654606 76.2842 0.701696C76.2842 0.749253 76.4016 0.917101 76.545 1.07469C76.6885 1.23275 76.8293 1.4724 76.8581 1.60761C76.8869 1.74235 77.0114 1.93957 77.1342 2.04541C77.2576 2.15125 77.4016 2.37504 77.4544 2.54289C77.5071 2.71074 77.6484 2.92754 77.7685 3.02452C77.8892 3.1215 78.0321 3.35416 78.0875 3.54159C78.1435 3.73181 78.2636 3.91738 78.3604 3.96167C78.4555 4.0055 78.6044 4.2251 78.6909 4.44983C78.7778 4.67456 78.9224 4.90348 79.0132 4.9585C79.1034 5.01352 79.2235 5.20514 79.28 5.38465C79.336 5.56415 79.5007 5.82618 79.6447 5.96745C79.7893 6.10826 79.9072 6.29289 79.9072 6.37728C79.9072 6.4612 80.01 6.60714 80.1355 6.70038C80.2611 6.7941 80.4236 7.04307 80.4964 7.25335C80.5693 7.46362 80.7285 7.71493 80.8508 7.81238C80.9731 7.90935 81.1014 8.12383 81.1356 8.28888C81.1731 8.46885 81.3014 8.67166 81.4563 8.79615C81.6215 8.92856 81.7356 9.11739 81.7732 9.31788C81.8112 9.52209 81.9041 9.67269 82.0389 9.74868C82.1569 9.81489 82.3139 10.041 82.4042 10.2755C82.4911 10.5017 82.6346 10.7306 82.7227 10.7842C82.8107 10.8374 82.933 11.0113 82.9939 11.1698C83.0548 11.3283 83.2211 11.5955 83.3629 11.7638C83.5053 11.9321 83.6217 12.1284 83.6217 12.1997C83.6217 12.2711 83.7418 12.445 83.8885 12.5858C84.0353 12.727 84.1831 12.9518 84.2168 13.0856C84.251 13.2194 84.3902 13.4381 84.5266 13.5723C84.663 13.7062 84.8038 13.9481 84.8391 14.1099C84.8772 14.2834 85.0114 14.4908 85.1653 14.6139C85.3354 14.7501 85.4484 14.9356 85.4865 15.1422C85.524 15.3413 85.618 15.5007 85.7387 15.5688C85.8447 15.628 85.9881 15.8131 86.0577 15.9791C86.1267 16.1455 86.2784 16.3791 86.3947 16.499C86.511 16.6183 86.6496 16.8542 86.7023 17.0235C86.7556 17.1923 86.8371 17.3307 86.8844 17.3307C86.9757 17.3307 87.3355 17.8893 87.3355 18.0315C87.3355 18.0781 87.4535 18.246 87.598 18.4036C87.7426 18.5612 87.891 18.778 87.9274 18.8847C87.9644 18.9915 88.0899 19.1766 88.2062 19.2964C88.3225 19.4158 88.4633 19.6582 88.5188 19.8349C88.5742 20.0116 88.7324 20.2462 88.8699 20.3567C89.0427 20.4951 89.14 20.67 89.184 20.9217C89.2302 21.1861 89.296 21.2989 89.4254 21.3344C89.5232 21.3609 89.6591 21.4971 89.7275 21.6374C89.8944 21.9801 90.0026 21.9913 93.2262 21.9922C95.5916 21.9927 95.9264 21.9778 96.1193 21.8617C96.4954 21.6356 96.6411 21.477 96.7569 21.1665C96.8183 21.0015 96.9612 20.7791 97.0737 20.6718C97.1863 20.5651 97.327 20.3473 97.3863 20.1874C97.4455 20.028 97.5868 19.8349 97.7004 19.7585C97.8167 19.6797 97.9352 19.488 97.9722 19.3179C98.0135 19.1295 98.138 18.9407 98.3032 18.8167C98.4488 18.7066 98.5684 18.5532 98.5684 18.4758C98.5684 18.2893 98.9103 17.7191 99.0217 17.7191C99.0695 17.7191 99.1549 17.5625 99.2114 17.3713C99.2674 17.1801 99.4054 16.9382 99.518 16.8342C99.6305 16.7297 99.7691 16.5311 99.825 16.3922C99.8816 16.2537 100.023 16.0318 100.14 15.8998C100.257 15.7679 100.401 15.5343 100.459 15.3809C100.517 15.227 100.663 15.0298 100.781 14.9417C100.907 14.8471 101.021 14.6512 101.058 14.4633C101.097 14.2629 101.202 14.0899 101.341 13.9962C101.466 13.9118 101.622 13.6754 101.699 13.453C101.776 13.232 101.912 13.024 102.011 12.9788C102.107 12.935 102.228 12.7639 102.28 12.5998C102.331 12.4352 102.495 12.1685 102.645 12.0076C102.794 11.8463 102.917 11.6542 102.917 11.581C102.917 11.5078 103.037 11.305 103.185 11.1297C103.333 10.9549 103.482 10.7138 103.518 10.5944C103.552 10.4746 103.694 10.2434 103.831 10.0807C103.969 9.91747 104.109 9.67968 104.141 9.55286C104.174 9.42558 104.295 9.26799 104.411 9.20318C104.548 9.12578 104.66 8.94861 104.73 8.69637C104.8 8.44787 104.913 8.26696 105.046 8.19283C105.168 8.12383 105.293 7.93826 105.352 7.73638C105.411 7.53636 105.548 7.33121 105.684 7.23983C105.823 7.14565 105.936 6.97314 105.967 6.80669C105.996 6.65469 106.121 6.43696 106.243 6.32319C106.367 6.20896 106.524 5.97817 106.593 5.81033C106.663 5.64248 106.82 5.40236 106.943 5.27648C107.066 5.15106 107.192 4.93192 107.223 4.79019C107.254 4.64845 107.372 4.44656 107.485 4.34166C107.599 4.23675 107.742 4.01995 107.803 3.86003C107.865 3.70011 108.009 3.49216 108.123 3.39798C108.237 3.3038 108.38 3.087 108.44 2.91589C108.501 2.74478 108.641 2.53497 108.752 2.44964C108.863 2.36432 109.004 2.14379 109.065 1.95962C109.127 1.77546 109.272 1.55399 109.388 1.46773C109.511 1.37635 109.623 1.18193 109.656 1.00382C109.691 0.816858 109.82 0.601454 109.986 0.452722C110.446 0.0396307 110.465 0.0424281 106.784 0.0205147L103.374 0L103.194 0.302126C103.095 0.468575 102.961 0.621969 102.895 0.643882C102.829 0.665329 102.721 0.863949 102.655 1.08448C102.582 1.32973 102.459 1.52835 102.339 1.59549C102.231 1.65656 102.089 1.86124 102.024 2.05101C101.958 2.2403 101.807 2.47482 101.686 2.57227C101.565 2.66924 101.467 2.80725 101.467 2.87905C101.467 2.95039 101.346 3.15181 101.199 3.32665C101.051 3.50102 100.869 3.77144 100.793 3.9267C100.717 4.08243 100.578 4.26799 100.484 4.33979C100.389 4.4116 100.26 4.63959 100.196 4.84613C100.117 5.10164 100.015 5.24804 99.8761 5.30212C99.7294 5.35947 99.6565 5.4737 99.6152 5.71055C99.5767 5.92968 99.4696 6.11199 99.294 6.25652C99.1489 6.37588 99.0038 6.5759 98.9717 6.70132C98.9396 6.82674 98.801 7.04028 98.6635 7.17595C98.5266 7.31163 98.3847 7.52797 98.3488 7.65618C98.313 7.7844 98.1896 7.97649 98.0744 8.08326C97.9597 8.1905 97.8146 8.41756 97.7532 8.58867C97.6912 8.75932 97.5482 8.98684 97.4357 9.09361C97.3232 9.20038 97.1819 9.42791 97.121 9.59855C97.0607 9.76966 96.9205 9.97948 96.809 10.0648C96.6982 10.1506 96.5574 10.3711 96.4954 10.5548C96.434 10.739 96.2878 10.9609 96.171 11.0486C96.0536 11.1358 95.9318 11.3269 95.8997 11.4733C95.8677 11.6193 95.7264 11.8519 95.5861 11.9899C95.4454 12.1279 95.3002 12.3587 95.2638 12.5028C95.2274 12.6469 95.0796 12.8702 94.935 12.9998C94.791 13.1294 94.673 13.2987 94.673 13.3765C94.673 13.4539 94.5567 13.6325 94.4143 13.7728C94.2719 13.9132 94.1029 14.1677 94.0382 14.3389C93.7121 15.2042 92.6359 15.5562 92.4571 14.8564C92.425 14.7319 92.2978 14.5487 92.1739 14.4489C92.05 14.3491 91.9043 14.1174 91.8505 13.9342C91.7967 13.7505 91.7163 13.6008 91.6717 13.6008C91.5494 13.6008 91.2315 13.1187 91.2309 12.9336C91.2309 12.8445 91.1103 12.6795 90.9635 12.5671C90.8119 12.4515 90.651 12.2193 90.5917 12.0319C90.5347 11.8496 90.4146 11.6566 90.3249 11.6025C90.2352 11.5484 90.0971 11.3428 90.0189 11.1446C89.9401 10.9469 89.7732 10.7036 89.6476 10.6038C89.5215 10.504 89.4188 10.3553 89.4188 10.2737C89.4188 10.1921 89.2987 9.99579 89.1525 9.83727C89.0058 9.67875 88.8367 9.42045 88.7769 9.26333C88.7171 9.10573 88.5731 8.87914 88.4573 8.75978C88.341 8.64042 88.203 8.40497 88.1503 8.23666C88.0975 8.06834 87.9752 7.89443 87.879 7.85014C87.7801 7.80492 87.6437 7.59604 87.566 7.37131C87.4899 7.15171 87.3491 6.92511 87.2529 6.8673C87.1562 6.80949 87.0279 6.63091 86.967 6.47053C86.9061 6.31061 86.7404 6.0649 86.598 5.92456C86.4556 5.78375 86.3393 5.60285 86.3393 5.52219C86.3393 5.44153 86.2365 5.27135 86.1115 5.1436C85.986 5.01585 85.8186 4.77713 85.7387 4.61348C85.6588 4.44983 85.4973 4.2181 85.3799 4.09828C85.2625 3.97799 85.1245 3.7472 85.0734 3.58541C85.0229 3.42316 84.9011 3.22827 84.8033 3.15227C84.7054 3.07627 84.5581 2.84082 84.4766 2.62915C84.3945 2.41747 84.2722 2.22631 84.2054 2.20393C84.138 2.18202 84.0125 2.00112 83.926 1.80156C83.8396 1.60248 83.6543 1.3246 83.514 1.18426C83.3738 1.04392 83.2591 0.85882 83.2591 0.773032C83.2591 0.687709 83.0993 0.478832 82.9037 0.309586L82.5487 0.00186498L79.3936 0.00326372C77.6582 0.00372996 76.1841 0.0340358 76.1167 0.0704027ZM117.768 0.0867213C117.597 0.140806 117.51 0.250373 117.427 0.512868C117.367 0.706825 117.222 0.942278 117.106 1.03599C116.989 1.12971 116.845 1.33392 116.786 1.49011C116.726 1.64631 116.583 1.86171 116.467 1.96895C116.351 2.07618 116.228 2.26315 116.194 2.38437C116.159 2.50559 116.018 2.72752 115.879 2.87719C115.741 3.02639 115.6 3.24832 115.564 3.36954C115.529 3.4903 115.407 3.66514 115.291 3.75792C115.176 3.85024 115.012 4.10807 114.927 4.33047C114.828 4.58644 114.707 4.75242 114.596 4.78226C114.475 4.81536 114.402 4.93052 114.36 5.15479C114.323 5.3576 114.205 5.56089 114.046 5.69749C113.905 5.81779 113.748 6.05417 113.695 6.22295C113.642 6.3922 113.478 6.63604 113.33 6.76566C113.183 6.89481 113.062 7.07897 113.062 7.17455C113.062 7.2706 112.946 7.47015 112.804 7.61888C112.662 7.76762 112.496 8.01985 112.435 8.17978C112.374 8.3397 112.266 8.49822 112.196 8.53226C112.125 8.56582 111.993 8.78496 111.901 9.01855C111.795 9.29083 111.665 9.4708 111.538 9.52023C111.43 9.56219 111.339 9.64984 111.337 9.71418C111.329 9.95896 111.078 10.4341 110.899 10.5408C110.798 10.6024 110.687 10.7777 110.653 10.9311C110.619 11.0845 110.48 11.3195 110.344 11.4533C110.207 11.5871 110.067 11.8132 110.03 11.9549C109.994 12.0972 109.852 12.3247 109.714 12.4604C109.576 12.596 109.432 12.7947 109.393 12.9014C109.355 13.0082 109.209 13.2082 109.069 13.3462C108.928 13.4842 108.787 13.7211 108.753 13.8721C108.72 14.0237 108.605 14.2078 108.497 14.282C108.389 14.3561 108.248 14.5692 108.183 14.7561C108.119 14.9426 107.977 15.1697 107.867 15.2611C107.759 15.352 107.614 15.5665 107.547 15.7376C107.479 15.9087 107.332 16.1358 107.22 16.2425C107.107 16.3498 106.965 16.5689 106.905 16.7302C106.845 16.8915 106.703 17.1191 106.589 17.2356C106.475 17.3517 106.354 17.5578 106.32 17.6935C106.285 17.8292 106.165 18.025 106.052 18.1294C105.94 18.2334 105.793 18.4371 105.727 18.5821C105.66 18.7271 105.514 18.9332 105.403 19.04C105.291 19.1472 105.171 19.3883 105.135 19.5766C105.095 19.7855 104.985 19.9865 104.852 20.0923C104.732 20.1874 104.569 20.4275 104.491 20.6252C104.412 20.8229 104.269 21.0322 104.172 21.0905C104.075 21.1488 103.971 21.3283 103.94 21.4896C103.845 21.9941 103.838 21.9932 107.177 21.9932H110.133L110.463 21.678C110.645 21.5045 110.835 21.2299 110.886 21.0677C110.937 20.9054 111.079 20.6793 111.202 20.566C111.325 20.4522 111.469 20.22 111.522 20.0508C111.575 19.8811 111.699 19.7053 111.797 19.6606C111.898 19.6139 112.017 19.433 112.074 19.2377C112.131 19.0418 112.281 18.8153 112.425 18.7048C112.563 18.5989 112.702 18.3928 112.735 18.2446C112.768 18.0935 112.906 17.8893 113.05 17.7793C113.221 17.6487 113.328 17.4739 113.368 17.2571C113.405 17.0566 113.517 16.8612 113.658 16.7489C113.785 16.6482 113.926 16.4495 113.972 16.3073C114.018 16.1651 114.159 15.9465 114.284 15.822C114.41 15.698 114.553 15.4672 114.602 15.31C114.652 15.1529 114.772 14.9618 114.87 14.8862C114.967 14.8102 115.114 14.5771 115.195 14.3678C115.276 14.1589 115.415 13.9542 115.504 13.9132C115.593 13.8721 115.712 13.6828 115.768 13.4926C115.863 13.17 116.068 12.9014 116.22 12.9014C116.256 12.9014 116.337 12.735 116.4 12.5322C116.469 12.3116 116.622 12.079 116.782 11.9535C116.942 11.8281 117.048 11.6659 117.048 11.5484C117.048 11.4407 117.165 11.2379 117.308 11.0971C117.451 10.9567 117.599 10.7199 117.637 10.5702C117.674 10.4205 117.821 10.1837 117.964 10.0443C118.106 9.90441 118.249 9.6946 118.281 9.57804C118.313 9.46101 118.432 9.27824 118.546 9.17148C118.66 9.06471 118.804 8.82599 118.867 8.64136C118.931 8.45719 119.069 8.24738 119.175 8.17511C119.281 8.10331 119.423 7.87578 119.49 7.6697C119.562 7.44871 119.696 7.24775 119.815 7.18015C119.931 7.11487 120.044 6.94936 120.078 6.79596C120.11 6.64723 120.252 6.41318 120.392 6.27517C120.532 6.13716 120.675 5.94507 120.711 5.84856C120.855 5.45085 121.122 5.41635 124.114 5.40936C127.31 5.40143 127.775 5.30305 127.1 4.77853C126.999 4.7002 126.872 4.48573 126.818 4.30296C126.765 4.11973 126.603 3.86423 126.459 3.73508C126.315 3.60593 126.197 3.44367 126.197 3.37467C126.197 3.30567 126.096 3.14621 125.973 3.02079C125.85 2.89491 125.699 2.64547 125.639 2.4655C125.578 2.28599 125.438 2.04355 125.327 1.92698C125.216 1.81042 125.077 1.59036 125.019 1.43789C124.96 1.28497 124.815 1.07702 124.697 0.975848C124.579 0.874206 124.437 0.63549 124.381 0.44433C124.287 0.127751 124.25 0.093715 123.947 0.0508205C123.415 -0.0247109 118.022 0.00699367 117.768 0.0867213ZM141.618 0.0568817L141.413 0.0904513L141.437 2.62915L141.461 5.16738L141.733 5.28487C141.971 5.38791 143.626 5.40423 155.23 5.41728C168.913 5.43267 169.11 5.43593 169.349 5.66206C169.531 5.83457 169.587 7.79559 169.417 8.06694C169.18 8.4474 169.774 8.43061 155.185 8.47211L141.461 8.51081L141.438 15.1706L141.415 21.83L141.755 21.9111C142.242 22.0272 168.529 22.0235 169.945 21.9074C170.853 21.8328 171.046 21.7913 171.393 21.5964C171.613 21.4724 171.862 21.3712 171.948 21.3712C172.151 21.3712 173.363 20.4979 173.678 20.1245C173.813 19.9641 173.965 19.8112 174.014 19.785C174.063 19.7589 174.131 19.6321 174.164 19.503C174.197 19.3738 174.316 19.2158 174.43 19.1519C174.595 19.0596 174.659 18.9136 174.747 18.4357C174.808 18.1056 174.944 17.5909 175.048 17.2916C175.335 16.4691 175.387 13.9369 175.123 13.6213C175.024 13.5029 174.872 13.2138 174.785 12.9788C174.698 12.7438 174.512 12.4151 174.372 12.2487C174.232 12.0818 174.118 11.8948 174.118 11.8328C174.118 11.7708 173.995 11.6225 173.846 11.5027C173.442 11.1796 173.46 10.7399 173.891 10.3707C174.065 10.221 174.208 10.0499 174.208 9.9902C174.208 9.93052 174.301 9.81815 174.416 9.74029C174.532 9.66103 174.698 9.39387 174.794 9.13231C174.887 8.87588 175.038 8.56116 175.129 8.43295C175.382 8.07674 175.374 5.55389 175.118 4.9585C175.021 4.73284 174.881 4.24188 174.806 3.86749C174.711 3.39332 174.602 3.11124 174.446 2.935C174.323 2.79653 174.191 2.57786 174.154 2.44964C174.118 2.32143 173.982 2.1256 173.853 2.01464C173.725 1.90321 173.497 1.68407 173.347 1.52741C173.198 1.37122 172.926 1.174 172.742 1.09008C172.559 1.00569 172.384 0.869078 172.354 0.786553C172.315 0.683047 172.18 0.619171 171.917 0.581872C171.485 0.520328 171.217 0.415889 171.078 0.253636C171.021 0.18743 170.709 0.115628 170.307 0.0755314C169.642 0.00932487 142.015 -0.00839237 141.618 0.0568817ZM185.199 0.072734C184.992 0.102574 184.666 0.219134 184.474 0.331499C184.283 0.443864 184.005 0.559958 183.855 0.589798C183.706 0.619171 183.461 0.741327 183.312 0.861152C183.162 0.980976 182.928 1.10267 182.791 1.13157C182.654 1.16048 182.542 1.23135 182.542 1.2887C182.542 1.34558 182.399 1.48592 182.225 1.60015C182.05 1.71438 181.908 1.85005 181.908 1.90227C181.908 1.95403 181.788 2.08877 181.64 2.20114C181.485 2.32003 181.331 2.54429 181.273 2.73825C181.218 2.92148 181.074 3.14201 180.953 3.22827C180.603 3.47911 180.55 4.50764 180.55 10.9973C180.55 16.8892 180.614 18.542 180.849 18.6894C181.006 18.7877 181.273 19.226 181.273 19.3836C181.273 19.4479 181.411 19.6293 181.579 19.7855C181.747 19.9422 181.997 20.1832 182.135 20.3217C182.604 20.794 182.645 20.8276 182.769 20.8276C182.837 20.8276 182.976 20.9283 183.078 21.0518C183.197 21.195 183.379 21.2943 183.58 21.3269C183.754 21.3549 184.019 21.4668 184.17 21.5759C184.734 21.9824 185.365 22.0011 197.754 21.9727C209.575 21.9456 210.05 21.9312 210.33 21.5964C210.393 21.5213 210.663 21.4052 210.931 21.3386C211.249 21.2593 211.469 21.1497 211.565 21.0234C211.646 20.9171 211.813 20.8084 211.935 20.7819C212.057 20.7558 212.182 20.6667 212.213 20.5847C212.243 20.5021 212.367 20.379 212.488 20.311C212.609 20.2429 212.783 20.0429 212.874 19.8662C212.966 19.6899 213.106 19.4988 213.186 19.4414C213.267 19.3845 213.4 19.1407 213.481 18.8992C213.563 18.6581 213.718 18.3551 213.825 18.2259L214.02 17.9909V11.1138V4.23675L213.779 3.80968C213.645 3.57422 213.492 3.23713 213.438 3.05996C213.383 2.88278 213.28 2.7182 213.208 2.69442C213.136 2.67064 212.977 2.48321 212.857 2.27807C212.619 1.8771 211.829 1.18612 211.377 0.985639C211.224 0.918033 211.077 0.813595 211.05 0.753916C211.024 0.694236 210.818 0.60565 210.594 0.557161C210.37 0.508672 210.053 0.372995 209.889 0.255035L209.592 0.0405632L197.584 0.0293733C190.98 0.0233122 185.407 0.0428944 185.199 0.072734ZM63.9642 5.47883C65.2377 5.54783 65.4573 5.59166 65.7725 5.83877C65.9301 5.96185 66.0986 6.06303 66.147 6.06303C66.1954 6.06303 66.3138 6.22062 66.41 6.41271C66.5062 6.6048 66.6291 6.76239 66.6834 6.76239C67.0416 6.76239 67.0867 7.21745 67.0884 10.842C67.0894 14.5529 67.0699 14.7916 66.7296 15.1385C66.6101 15.2601 66.4834 15.4583 66.4481 15.5791C66.4062 15.7222 66.2937 15.8276 66.1252 15.8821C65.9828 15.9283 65.8442 16.0253 65.8176 16.0971C65.7513 16.2761 65.6062 16.3162 64.5077 16.4598C63.3614 16.6095 48.9729 16.6962 48.5647 16.5558C48.4402 16.5129 47.9712 16.443 47.5228 16.4006C46.7879 16.3311 46.6852 16.3013 46.4808 16.0966C46.3564 15.9721 46.164 15.8308 46.0536 15.7828C45.9313 15.7301 45.8139 15.5711 45.7525 15.3753C45.6971 15.1986 45.565 14.9543 45.4596 14.8317C44.9623 14.2545 44.9737 7.49207 45.4726 7.14425C45.5699 7.07618 45.6998 6.87756 45.7607 6.70272C45.8862 6.34371 46.6434 5.72407 47.1396 5.57441C47.3847 5.50027 62.1358 5.35341 62.9223 5.41728C63.0223 5.42521 63.4908 5.45272 63.9642 5.47883ZM204.836 5.47137C205.464 5.49748 206.104 5.54037 206.258 5.56648C206.629 5.63036 207.6 6.41831 207.684 6.72463C207.719 6.85238 207.855 7.0552 207.986 7.17549L208.223 7.39415L208.252 10.6723C208.283 14.2754 208.265 14.5221 207.953 14.8112C207.835 14.9203 207.711 15.1483 207.678 15.318C207.635 15.5343 207.545 15.6662 207.377 15.7567C207.244 15.828 207.034 15.9847 206.91 16.105C206.456 16.5428 205.458 16.5927 197.217 16.5903C188.909 16.588 188.09 16.5456 187.608 16.0933C187.468 15.9618 187.308 15.8541 187.253 15.8541C187.198 15.8541 187.093 15.732 187.02 15.5823C186.947 15.4327 186.845 15.31 186.793 15.31C186.028 15.31 186.021 7.64639 186.785 6.75447C186.942 6.57077 187.071 6.37635 187.071 6.32133C187.071 6.26678 187.183 6.16187 187.32 6.08821C187.457 6.01501 187.654 5.86954 187.757 5.76463C187.932 5.58746 188.035 5.56928 189.297 5.48862C190.715 5.39817 202.735 5.38511 204.836 5.47137ZM123.049 8.5234C122.987 8.54484 122.936 8.62317 122.936 8.69684C122.936 8.77097 122.818 8.92903 122.672 9.04792C122.528 9.16681 122.383 9.38408 122.351 9.53048C122.319 9.67642 122.181 9.90907 122.043 10.0471C121.905 10.1851 121.742 10.4467 121.681 10.6285C121.618 10.8145 121.477 11.0117 121.357 11.0789C121.208 11.1623 121.126 11.3036 121.083 11.5447C121.05 11.7349 120.929 11.9867 120.814 12.1046C120.698 12.2221 120.514 12.4995 120.403 12.721C120.292 12.942 120.147 13.1415 120.079 13.1635C120.011 13.1858 119.912 13.3444 119.859 13.5155C119.805 13.6866 119.668 13.9244 119.555 14.0437C119.441 14.1635 119.284 14.4079 119.204 14.5874C118.945 15.1711 118.781 15.1459 122.994 15.1711L126.72 15.1935L126.944 15.3879C127.068 15.4947 127.2 15.6681 127.239 15.7735C127.277 15.8789 127.402 16.0276 127.516 16.1045C127.63 16.1814 127.75 16.3498 127.783 16.4784C127.816 16.6071 127.946 16.8169 128.071 16.9447C128.196 17.0724 128.359 17.3774 128.434 17.6226C128.508 17.8683 128.63 18.0986 128.705 18.135C128.873 18.2171 129.096 18.6595 129.096 18.9122C129.096 19.0246 129.183 19.1491 129.314 19.2228C129.441 19.2941 129.595 19.509 129.684 19.7375C129.767 19.9529 129.913 20.1646 130.006 20.2079C130.1 20.2508 130.228 20.4341 130.29 20.615C130.352 20.7959 130.497 21.0313 130.61 21.1376C130.724 21.2444 130.859 21.4411 130.911 21.5754C131.064 21.9708 131.361 22.0016 134.803 21.9764L137.838 21.954L137.865 21.7092C137.885 21.5283 137.824 21.3964 137.628 21.2043C137.483 21.0612 137.333 20.8565 137.296 20.7497C137.259 20.6429 137.116 20.3982 136.977 20.2056C136.838 20.0135 136.694 19.7687 136.657 19.662C136.62 19.5552 136.495 19.3701 136.379 19.2512C136.263 19.1328 136.132 18.9202 136.086 18.7794C136.041 18.6385 135.897 18.432 135.768 18.3206C135.628 18.2007 135.508 17.9886 135.472 17.7998C135.434 17.5956 135.333 17.4272 135.191 17.3312C135.068 17.2487 134.911 17.017 134.84 16.8165C134.77 16.616 134.634 16.4048 134.538 16.347C134.443 16.2896 134.297 16.0672 134.213 15.8532C134.131 15.6392 133.988 15.4299 133.897 15.3879C133.806 15.3459 133.665 15.1408 133.584 14.9314C133.503 14.7226 133.356 14.4894 133.258 14.4135C133.161 14.3375 133.039 14.1416 132.988 13.978C132.936 13.8143 132.795 13.5882 132.673 13.4758C132.551 13.363 132.426 13.1555 132.396 13.0147C132.365 12.8744 132.241 12.6795 132.12 12.582C132 12.4851 131.844 12.2422 131.775 12.0426C131.706 11.8431 131.55 11.5941 131.428 11.4896C131.306 11.3852 131.177 11.1647 131.14 10.9996C131.103 10.8266 130.984 10.6387 130.862 10.5558C130.745 10.477 130.6 10.2816 130.539 10.1221C130.478 9.96222 130.312 9.71698 130.17 9.57664C130.028 9.4363 129.911 9.254 129.911 9.17148C129.911 9.08895 129.785 8.89779 129.63 8.74673L129.349 8.47211L126.256 8.47817C124.555 8.48143 123.112 8.50195 123.049 8.5234ZM168.951 13.5467C169.423 13.6856 169.494 13.8852 169.496 15.0629C169.499 16.9004 170.794 16.7088 158.355 16.7088C145.951 16.7088 147.182 16.8845 147.173 15.1161C147.167 14.0013 147.262 13.7421 147.742 13.5714C148.182 13.4148 168.424 13.3914 168.951 13.5467Z" fill="#6750A4"/>
</svg>
