<svg width="21" height="19" viewBox="0.4949951171875 0.06109619140625 20.010009765625 18.8778076171875" fill="none" xmlns="http://www.w3.org/2000/svg">
<path d="M0 10.3857V8.6143C0 7.56757 0.855502 6.702 1.9123 6.702C3.73401 6.702 4.4788 5.41372 3.56291 3.83356C3.03955 2.92773 3.35155 1.75016 4.26744 1.22679L6.00864 0.230383C6.80376 -0.242659 7.83036 0.0391532 8.3034 0.834267L8.41411 1.0255C9.31994 2.60566 10.8095 2.60566 11.7254 1.0255L11.8361 0.834267C12.3092 0.0391532 13.3358 -0.242659 14.1309 0.230383L15.8721 1.22679C16.788 1.75016 17.1 2.92773 16.5766 3.83356C15.6607 5.41372 16.4055 6.702 18.2272 6.702C19.274 6.702 20.1395 7.5575 20.1395 8.6143V10.3857C20.1395 11.4324 19.284 12.298 18.2272 12.298C16.4055 12.298 15.6607 13.5863 16.5766 15.1664C17.1 16.0823 16.788 17.2498 15.8721 17.7732L14.1309 18.7696C13.3358 19.2427 12.3092 18.9608 11.8361 18.1657L11.7254 17.9745C10.8196 16.3943 9.33 16.3943 8.41411 17.9745L8.3034 18.1657C7.83036 18.9608 6.80376 19.2427 6.00864 18.7696L4.26744 17.7732C3.82872 17.5206 3.50814 17.1042 3.37606 16.6155C3.24397 16.1268 3.31117 15.6057 3.56291 15.1664C4.4788 13.5863 3.73401 12.298 1.9123 12.298C0.855502 12.298 0 11.4324 0 10.3857V10.3857Z" stroke="black" stroke-width="1.5" stroke-miterlimit="10" stroke-linecap="round" stroke-linejoin="round"/>
</svg>
